<svg width="963" height="806" viewBox="0 0 963 806" fill="none" xmlns="http://www.w3.org/2000/svg">
<path d="M408 3.5C408 5.433 406.433 7 404.5 7C402.567 7 401 5.433 401 3.5C401 1.567 402.567 0 404.5 0C406.433 0 408 1.567 408 3.5Z" fill="white"/>
<path d="M241 235.5C241 237.433 239.433 239 237.5 239C235.567 239 234 237.433 234 235.5C234 233.567 235.567 232 237.5 232C239.433 232 241 233.567 241 235.5Z" fill="white"/>
<path d="M189 239.5C189 241.433 187.433 243 185.5 243C183.567 243 182 241.433 182 239.5C182 237.567 183.567 236 185.5 236C187.433 236 189 237.567 189 239.5Z" fill="white"/>
<path d="M154 295.5C154 297.433 152.433 299 150.5 299C148.567 299 147 297.433 147 295.5C147 293.567 148.567 292 150.5 292C152.433 292 154 293.567 154 295.5Z" fill="white"/>
<path d="M130 324.5C130 326.433 128.433 328 126.5 328C124.567 328 123 326.433 123 324.5C123 322.567 124.567 321 126.5 321C128.433 321 130 322.567 130 324.5Z" fill="white"/>
<path d="M73 349.5C73 351.433 71.433 353 69.5 353C67.567 353 66 351.433 66 349.5C66 347.567 67.567 346 69.5 346C71.433 346 73 347.567 73 349.5Z" fill="white"/>
<path d="M40 418.5C40 420.433 38.433 422 36.5 422C34.567 422 33 420.433 33 418.5C33 416.567 34.567 415 36.5 415C38.433 415 40 416.567 40 418.5Z" fill="white"/>
<path d="M16 498.5C16 500.433 14.433 502 12.5 502C10.567 502 9 500.433 9 498.5C9 496.567 10.567 495 12.5 495C14.433 495 16 496.567 16 498.5Z" fill="white"/>
<path d="M69 534.5C69 536.433 67.433 538 65.5 538C63.567 538 62 536.433 62 534.5C62 532.567 63.567 531 65.5 531C67.433 531 69 532.567 69 534.5Z" fill="white"/>
<path d="M65 581.5C65 583.433 63.433 585 61.5 585C59.567 585 58 583.433 58 581.5C58 579.567 59.567 578 61.5 578C63.433 578 65 579.567 65 581.5Z" fill="white"/>
<path d="M35 711.5C35 713.433 33.433 715 31.5 715C29.567 715 28 713.433 28 711.5C28 709.567 29.567 708 31.5 708C33.433 708 35 709.567 35 711.5Z" fill="white"/>
<path d="M55 733.5C55 735.433 53.433 737 51.5 737C49.567 737 48 735.433 48 733.5C48 731.567 49.567 730 51.5 730C53.433 730 55 731.567 55 733.5Z" fill="white"/>
<path d="M7 732.5C7 734.433 5.433 736 3.5 736C1.567 736 0 734.433 0 732.5C0 730.567 1.567 729 3.5 729C5.433 729 7 730.567 7 732.5Z" fill="white"/>
<path d="M16 799.5C16 801.433 14.433 803 12.5 803C10.567 803 9 801.433 9 799.5C9 797.567 10.567 796 12.5 796C14.433 796 16 797.567 16 799.5Z" fill="white"/>
<path d="M49 771.5C49 773.433 47.433 775 45.5 775C43.567 775 42 773.433 42 771.5C42 769.567 43.567 768 45.5 768C47.433 768 49 769.567 49 771.5Z" fill="white"/>
<path d="M166 787.5C166 789.433 164.433 791 162.5 791C160.567 791 159 789.433 159 787.5C159 785.567 160.567 784 162.5 784C164.433 784 166 785.567 166 787.5Z" fill="white"/>
<path d="M264 802.5C264 804.433 262.433 806 260.5 806C258.567 806 257 804.433 257 802.5C257 800.567 258.567 799 260.5 799C262.433 799 264 800.567 264 802.5Z" fill="white"/>
<path d="M280 763.5C280 765.433 278.433 767 276.5 767C274.567 767 273 765.433 273 763.5C273 761.567 274.567 760 276.5 760C278.433 760 280 761.567 280 763.5Z" fill="white"/>
<path d="M304 763.5C304 765.433 302.433 767 300.5 767C298.567 767 297 765.433 297 763.5C297 761.567 298.567 760 300.5 760C302.433 760 304 761.567 304 763.5Z" fill="white"/>
<path d="M362 802.5C362 804.433 360.433 806 358.5 806C356.567 806 355 804.433 355 802.5C355 800.567 356.567 799 358.5 799C360.433 799 362 800.567 362 802.5Z" fill="white"/>
<path d="M290 604.5C290 606.433 288.433 608 286.5 608C284.567 608 283 606.433 283 604.5C283 602.567 284.567 601 286.5 601C288.433 601 290 602.567 290 604.5Z" fill="white"/>
<path d="M235 648.5C235 650.433 233.433 652 231.5 652C229.567 652 228 650.433 228 648.5C228 646.567 229.567 645 231.5 645C233.433 645 235 646.567 235 648.5Z" fill="white"/>
<path d="M136 543.5C136 545.433 134.433 547 132.5 547C130.567 547 129 545.433 129 543.5C129 541.567 130.567 540 132.5 540C134.433 540 136 541.567 136 543.5Z" fill="white"/>
<path d="M187 550.5C187 552.433 185.433 554 183.5 554C181.567 554 180 552.433 180 550.5C180 548.567 181.567 547 183.5 547C185.433 547 187 548.567 187 550.5Z" fill="white"/>
<path d="M198 518.5C198 520.433 196.433 522 194.5 522C192.567 522 191 520.433 191 518.5C191 516.567 192.567 515 194.5 515C196.433 515 198 516.567 198 518.5Z" fill="white"/>
<path d="M180 507.5C180 509.433 178.433 511 176.5 511C174.567 511 173 509.433 173 507.5C173 505.567 174.567 504 176.5 504C178.433 504 180 505.567 180 507.5Z" fill="white"/>
<path d="M138 517.5C138 519.433 136.433 521 134.5 521C132.567 521 131 519.433 131 517.5C131 515.567 132.567 514 134.5 514C136.433 514 138 515.567 138 517.5Z" fill="white"/>
<path d="M69 483.5C69 485.433 67.433 487 65.5 487C63.567 487 62 485.433 62 483.5C62 481.567 63.567 480 65.5 480C67.433 480 69 481.567 69 483.5Z" fill="white"/>
<path d="M130 385.5C130 387.433 128.433 389 126.5 389C124.567 389 123 387.433 123 385.5C123 383.567 124.567 382 126.5 382C128.433 382 130 383.567 130 385.5Z" fill="white"/>
<path d="M235 438.5C235 440.433 233.433 442 231.5 442C229.567 442 228 440.433 228 438.5C228 436.567 229.567 435 231.5 435C233.433 435 235 436.567 235 438.5Z" fill="white"/>
<path d="M324 442.5C324 444.433 322.433 446 320.5 446C318.567 446 317 444.433 317 442.5C317 440.567 318.567 439 320.5 439C322.433 439 324 440.567 324 442.5Z" fill="white"/>
<path d="M408 342.5C408 344.433 406.433 346 404.5 346C402.567 346 401 344.433 401 342.5C401 340.567 402.567 339 404.5 339C406.433 339 408 340.567 408 342.5Z" fill="white"/>
<path d="M423 321.5C423 323.433 421.433 325 419.5 325C417.567 325 416 323.433 416 321.5C416 319.567 417.567 318 419.5 318C421.433 318 423 319.567 423 321.5Z" fill="white"/>
<path d="M421 287.5C421 289.433 419.433 291 417.5 291C415.567 291 414 289.433 414 287.5C414 285.567 415.567 284 417.5 284C419.433 284 421 285.567 421 287.5Z" fill="white"/>
<path d="M408 270.5C408 272.433 406.433 274 404.5 274C402.567 274 401 272.433 401 270.5C401 268.567 402.567 267 404.5 267C406.433 267 408 268.567 408 270.5Z" fill="white"/>
<path d="M388 300.5C388 302.433 386.433 304 384.5 304C382.567 304 381 302.433 381 300.5C381 298.567 382.567 297 384.5 297C386.433 297 388 298.567 388 300.5Z" fill="white"/>
<path d="M388 323.5C388 325.433 386.433 327 384.5 327C382.567 327 381 325.433 381 323.5C381 321.567 382.567 320 384.5 320C386.433 320 388 321.567 388 323.5Z" fill="white"/>
<path d="M273 280.5C273 282.433 271.433 284 269.5 284C267.567 284 266 282.433 266 280.5C266 278.567 267.567 277 269.5 277C271.433 277 273 278.567 273 280.5Z" fill="white"/>
<path d="M243 335.5C243 337.433 241.433 339 239.5 339C237.567 339 236 337.433 236 335.5C236 333.567 237.567 332 239.5 332C241.433 332 243 333.567 243 335.5Z" fill="white"/>
<path d="M216 359.5C216 361.433 214.433 363 212.5 363C210.567 363 209 361.433 209 359.5C209 357.567 210.567 356 212.5 356C214.433 356 216 357.567 216 359.5Z" fill="white"/>
<path d="M305 401.5C305 403.433 303.433 405 301.5 405C299.567 405 298 403.433 298 401.5C298 399.567 299.567 398 301.5 398C303.433 398 305 399.567 305 401.5Z" fill="white"/>
<path d="M342 550.5C342 552.433 340.433 554 338.5 554C336.567 554 335 552.433 335 550.5C335 548.567 336.567 547 338.5 547C340.433 547 342 548.567 342 550.5Z" fill="white"/>
<path d="M366 579.5C366 581.433 364.433 583 362.5 583C360.567 583 359 581.433 359 579.5C359 577.567 360.567 576 362.5 576C364.433 576 366 577.567 366 579.5Z" fill="white"/>
<path d="M408 802.5C408 804.433 406.433 806 404.5 806C402.567 806 401 804.433 401 802.5C401 800.567 402.567 799 404.5 799C406.433 799 408 800.567 408 802.5Z" fill="white"/>
<path d="M449 214.5C449 216.433 447.433 218 445.5 218C443.567 218 442 216.433 442 214.5C442 212.567 443.567 211 445.5 211C447.433 211 449 212.567 449 214.5Z" fill="white"/>
<path d="M570 291.5C570 293.433 568.433 295 566.5 295C564.567 295 563 293.433 563 291.5C563 289.567 564.567 288 566.5 288C568.433 288 570 289.567 570 291.5Z" fill="white"/>
<path d="M663 345.5C663 347.433 661.433 349 659.5 349C657.567 349 656 347.433 656 345.5C656 343.567 657.567 342 659.5 342C661.433 342 663 343.567 663 345.5Z" fill="white"/>
<path d="M810 419.5C810 421.433 808.433 423 806.5 423C804.567 423 803 421.433 803 419.5C803 417.567 804.567 416 806.5 416C808.433 416 810 417.567 810 419.5Z" fill="white"/>
<path d="M856 389.5C856 391.433 854.433 393 852.5 393C850.567 393 849 391.433 849 389.5C849 387.567 850.567 386 852.5 386C854.433 386 856 387.567 856 389.5Z" fill="white"/>
<path d="M963 426.5C963 428.433 961.433 430 959.5 430C957.567 430 956 428.433 956 426.5C956 424.567 957.567 423 959.5 423C961.433 423 963 424.567 963 426.5Z" fill="white"/>
<path d="M923 309.5C923 311.433 921.433 313 919.5 313C917.567 313 916 311.433 916 309.5C916 307.567 917.567 306 919.5 306C921.433 306 923 307.567 923 309.5Z" fill="white"/>
<path d="M771 272.5C771 274.433 769.433 276 767.5 276C765.567 276 764 274.433 764 272.5C764 270.567 765.567 269 767.5 269C769.433 269 771 270.567 771 272.5Z" fill="white"/>
<path d="M688 264.5C688 266.433 686.433 268 684.5 268C682.567 268 681 266.433 681 264.5C681 262.567 682.567 261 684.5 261C686.433 261 688 262.567 688 264.5Z" fill="white"/>
<path d="M587 196.5C587 198.433 585.433 200 583.5 200C581.567 200 580 198.433 580 196.5C580 194.567 581.567 193 583.5 193C585.433 193 587 194.567 587 196.5Z" fill="white"/>
<path d="M606 103.5C606 105.433 604.433 107 602.5 107C600.567 107 599 105.433 599 103.5C599 101.567 600.567 100 602.5 100C604.433 100 606 101.567 606 103.5Z" fill="white"/>
<path d="M775 188.5C775 190.433 773.433 192 771.5 192C769.567 192 768 190.433 768 188.5C768 186.567 769.567 185 771.5 185C773.433 185 775 186.567 775 188.5Z" fill="white"/>
</svg>
