<svg width="958" height="801" viewBox="0 0 958 801" fill="none" xmlns="http://www.w3.org/2000/svg">
<path d="M401.535 268.044L414.535 285.044L416.535 319.044L401.535 340.044M401.535 268.044L381.535 298.044V321.044L298.535 399.044L209.535 357.044L236.535 333.044L266.535 278.044L234.535 233.044L182.535 237.044L147.535 293.044L123.535 322.044L66.5352 347.044L33.5352 416.044L9.53516 496.044L62.5352 532.044M442.535 212.044C504.772 237.672 534.942 253.446 563.535 289.044L656.535 343.044C724.052 357.658 757.266 372.408 803.535 417.044L849.535 387.044C895.185 392.294 918.724 400.128 956.535 424.044C953.356 400.652 941.821 387.266 931.535 373.765C919.176 357.543 908.621 341.155 916.535 307.044C859.035 265.044 839.035 217.544 768.535 186.044C700.035 170.044 675.535 194.044 599.535 101.044C514.535 84.5437 473.035 58.5437 401.535 1.04372V268.044M401.535 268.044L442.535 212.044M401.535 340.044V800.044M401.535 340.044L317.535 440.044L228.535 436.044L191.535 516.044M62.5352 532.044L58.5352 579.044L28.5352 709.044M28.5352 709.044L0.535156 730.044L9.53516 797.044L42.5352 769.044L159.535 785.044L228.535 646.044L283.535 602.044L273.535 761.044L257.535 800.044H355.535L297.535 761.044L359.535 577.044L335.535 548.044H180.535L129.535 541.044L62.5352 532.044M28.5352 709.044L48.5352 731.044L159.535 785.044M180.535 548.044L191.535 516.044M191.535 516.044L173.535 505.044L131.535 515.044L62.5352 481.044L123.535 383.044M401.535 1.04372C450.111 111.827 464.35 162.611 442.535 212.044M401.535 1.04372C465.945 80.9452 503.783 124.32 580.535 194.044M916.535 307.044C843.708 266.175 812.616 262.369 764.535 270.044M803.535 417.044C779.731 348.424 757.131 313.091 681.535 262.044M656.535 343.044C605.843 295.202 588.525 262.881 580.535 194.044M580.535 194.044L681.535 262.044M681.535 262.044C714.059 271.876 732.381 273.709 764.535 270.044M764.535 270.044C828.586 296.994 864.869 316.431 931.535 373.765" stroke="white"/>
</svg>
